<?xml version="1.0" encoding="utf-8"?>
<!-- Generator: Adobe Illustrator 27.0.0, SVG Export Plug-In . SVG Version: 6.00 Build 0)  -->
<svg version="1.1" id="katman_1" xmlns="http://www.w3.org/2000/svg" xmlns:xlink="http://www.w3.org/1999/xlink" x="0px" y="0px"
	 viewBox="0 0 1086.3 841.89" style="enable-background:new 0 0 1086.3 841.89;" xml:space="preserve">
<style type="text/css">
	.st0{opacity:0.69;fill:none;stroke:#948989;stroke-width:6;stroke-miterlimit:10;}
	.st1{opacity:0.69;fill:#948989;}
</style>
<path class="st0" d="M684.7,351.66h116.75c98.75,0,178.81,58.92,178.81,131.61v101.05c0,72.68-80.05,131.61-178.81,131.61H284.85
	c-98.75,0-178.81-58.92-178.81-131.61V483.27c0-72.68,80.05-131.61,178.81-131.61h122.92"/>
<path class="st1" d="M543.15,330.84c17.24,0,31.22-13.98,31.22-31.22c0-17.24-13.98-31.22-31.22-31.22s-31.22,13.98-31.22,31.22
	C511.93,316.86,525.91,330.84,543.15,330.84z M532,342.55c-24.03,0-43.49,19.47-43.49,43.49c0,4,3.24,7.24,7.24,7.24h94.79
	c4,0,7.24-3.24,7.24-7.24c0-24.03-19.47-43.49-43.49-43.49H532z"/>
</svg>
